<svg width="405.000000" height="93.099121" viewBox="0 0 405 93.0991" fill="none" xmlns="http://www.w3.org/2000/svg" xmlns:xlink="http://www.w3.org/1999/xlink">
	<desc>
			Created with Pixso.
	</desc>
	<defs/>
	<path id="Rectangle 16 copy" d="M0 0L12 0L12 92L0 92L0 0Z" fill="#F16D7F" fill-opacity="1.000000" fill-rule="evenodd"/>
	<path id="THE BRAND OF LUXERIOUS FASHION" d="M46.11 18.08L56.3 18.08L56.3 12.27L28.71 12.27L28.71 18.08L38.89 18.08L38.89 47.09L46.11 47.09L46.11 18.08ZM90.47 47.09L90.47 12.27L83.21 12.27L83.21 27.06L67.89 27.06L67.89 12.27L60.63 12.27L60.63 47.09L67.89 47.09L67.89 32.09L83.21 32.09L83.21 47.09L90.47 47.09ZM105.01 26.87L105.01 17.91L119.94 17.91L119.94 12.27L97.76 12.27L97.76 47.09L119.94 47.09L119.94 41.46L105.01 41.46L105.01 32.31L116.63 32.31L116.63 26.87L105.01 26.87ZM155.06 12.93Q152.58 12.27 149.08 12.27L136.71 12.27L136.71 47.09L150.2 47.09Q153.29 47.09 155.68 46.32Q158.08 45.54 159.7 44.14Q160.87 43.15 161.63 41.92Q161.94 41.41 162.19 40.86Q162.32 40.56 162.44 40.25Q163.04 38.61 163.04 36.75Q163.04 34.28 161.91 32.58Q161.65 32.19 161.33 31.84Q159.63 29.94 156.08 29.09Q157.67 28.54 158.81 27.76Q159.97 26.96 160.7 25.99Q161.41 25.05 161.75 24Q161.77 23.96 161.78 23.91Q161.87 23.64 161.93 23.36Q162.13 22.51 162.13 21.61Q162.13 19.47 161.4 17.75Q161.19 17.23 160.9 16.76Q160.22 15.65 159.12 14.81Q157.55 13.59 155.06 12.93ZM195.66 47.09L201.29 47.09Q202.07 47.09 202.61 46.74Q202.71 46.68 202.81 46.6Q203.42 46.11 203.65 45.51L206.01 38.87L219.88 38.87L222.22 45.51Q222.39 45.91 222.66 46.23Q222.85 46.46 223.1 46.65Q223.69 47.09 224.63 47.09L230.22 47.09L216.63 12.27L209.26 12.27L195.91 46.44L188.22 34.57Q187.74 33.82 187.13 33.28Q186.59 32.79 185.97 32.43Q185.91 32.4 185.85 32.36Q187.59 31.75 188.96 30.77Q190.33 29.79 191.27 28.52Q191.52 28.17 191.75 27.81Q192.34 26.82 192.7 25.7Q193.19 24.15 193.19 22.43Q193.19 20.19 192.42 18.34Q192.21 17.83 191.94 17.37Q191.2 16.11 189.99 15.13Q188.34 13.78 185.74 13.03Q183.15 12.27 179.51 12.27L168.56 12.27L168.56 47.09L175.77 47.09L175.77 33.82L178.22 33.82Q179.18 33.82 179.66 34.11Q180.15 34.4 180.56 35.02L187.19 45.7Q187.5 46.22 187.94 46.55Q188.69 47.09 189.83 47.09L195.66 47.09ZM263.27 47.09L263.27 12.27L256.9 12.27L256.9 32.19Q256.9 32.96 256.95 33.82Q257 34.66 257.1 35.57L239.63 13.4Q239.34 13.04 239.09 12.83Q238.86 12.61 238.59 12.48Q238.33 12.34 238 12.3Q237.69 12.27 237.23 12.27L233.43 12.27L233.43 47.09L239.8 47.09L239.8 26.96Q239.8 26.26 239.76 25.45Q239.73 24.63 239.65 23.79L257 45.88Q257.56 46.54 258.14 46.82Q258.71 47.09 259.55 47.09L263.27 47.09ZM300.5 36.7Q301.79 33.49 301.79 29.67Q301.79 25.88 300.5 22.7Q299.52 20.23 297.9 18.3Q297.42 17.72 296.88 17.19Q296.71 17.02 296.53 16.86Q294.3 14.77 291.24 13.57Q287.96 12.27 283.95 12.27L270.56 12.27L270.56 47.09L283.95 47.09Q287.96 47.09 291.24 45.81Q294.43 44.55 296.72 42.36Q296.8 42.28 296.88 42.21Q297.42 41.68 297.9 41.1Q299.52 39.16 300.5 36.7ZM143.92 27.15L143.92 17.74L149.08 17.74Q150.59 17.74 151.69 18Q152.79 18.24 153.5 18.81Q153.7 18.95 153.86 19.12Q154.32 19.6 154.58 20.27Q154.93 21.17 154.93 22.47Q154.93 23.74 154.51 24.64Q154.26 25.18 153.87 25.6Q153.61 25.87 153.29 26.09Q152.51 26.64 151.33 26.9Q150.15 27.15 148.64 27.15L143.92 27.15ZM182.48 28.32Q181.22 28.75 179.46 28.75L175.77 28.75L175.77 17.74L179.51 17.74Q182.87 17.74 184.51 19.11Q185.01 19.52 185.35 20.04Q186.15 21.23 186.15 22.95Q186.15 24.2 185.76 25.25Q185.6 25.71 185.36 26.11Q185.03 26.64 184.57 27.09Q183.76 27.88 182.48 28.32ZM293.67 24.76Q294.4 26.94 294.4 29.67Q294.4 32.43 293.67 34.61Q292.95 36.79 291.61 38.33Q291.16 38.84 290.65 39.27Q289.62 40.12 288.34 40.66Q286.4 41.46 283.95 41.46L277.81 41.46L277.81 17.91L283.95 17.91Q286.4 17.91 288.34 18.73Q289.67 19.29 290.72 20.18Q291.19 20.59 291.61 21.06Q292.95 22.57 293.67 24.76ZM214.36 23.21L218.12 33.88L207.78 33.88L211.53 23.26Q211.86 22.43 212.23 21.29Q212.6 20.14 212.94 18.79Q213.27 20.12 213.65 21.25Q214.02 22.38 214.36 23.21ZM152.92 41.15Q151.81 41.57 150.08 41.57L143.92 41.57L143.92 32.05L150.04 32.05Q151.67 32.05 152.78 32.36Q153.9 32.67 154.59 33.27Q154.96 33.57 155.22 33.95Q155.45 34.29 155.6 34.7Q155.92 35.53 155.92 36.58Q155.92 37.29 155.77 37.97Q155.72 38.21 155.65 38.45Q155.58 38.69 155.48 38.92Q155.21 39.53 154.71 40.04Q154.04 40.73 152.92 41.15ZM51.79 78.24Q52.64 76.07 52.64 73.52Q52.64 71.83 52.26 70.3Q51.89 68.76 51.16 67.45Q50.69 66.6 50.1 65.85Q49.77 65.45 49.41 65.07Q49.01 64.66 48.58 64.3Q47.88 63.72 47.08 63.27Q45.78 62.52 44.23 62.11Q42.68 61.7 40.92 61.7Q38.3 61.7 36.14 62.59Q34.41 63.3 33.07 64.46Q32.74 64.75 32.43 65.06Q32.19 65.31 31.96 65.58Q30.76 66.99 30.04 68.82Q29.2 70.98 29.2 73.52Q29.2 76.07 30.04 78.24Q30.74 80.03 31.91 81.42Q32.16 81.72 32.43 81.99Q32.69 82.26 32.97 82.51Q34.34 83.72 36.14 84.46Q38.3 85.35 40.92 85.35Q43.57 85.35 45.72 84.46Q47.6 83.69 49 82.4Q49.21 82.2 49.42 81.99Q49.72 81.68 50 81.34Q51.12 79.98 51.79 78.24ZM212.43 78.24Q213.28 76.07 213.28 73.52Q213.28 71.83 212.9 70.3Q212.53 68.76 211.8 67.45Q211.34 66.6 210.74 65.85Q210.41 65.45 210.05 65.07Q209.65 64.66 209.22 64.3Q208.52 63.72 207.72 63.27Q206.42 62.52 204.87 62.11Q203.32 61.7 201.57 61.7Q198.94 61.7 196.78 62.59Q195.05 63.3 193.71 64.46Q193.38 64.75 193.07 65.06Q192.83 65.31 192.6 65.58Q191.4 66.99 190.68 68.82Q189.84 70.98 189.84 73.52Q189.84 76.07 190.68 78.24Q191.38 80.03 192.56 81.42Q192.8 81.72 193.07 81.99Q193.33 82.26 193.61 82.51Q194.98 83.72 196.78 84.46Q198.94 85.35 201.57 85.35Q204.21 85.35 206.36 84.46Q208.24 83.69 209.64 82.4Q209.85 82.2 210.06 81.99Q210.36 81.68 210.64 81.34Q211.76 79.98 212.43 78.24ZM252.74 66.66Q252.95 66.5 253.15 66.16L254.22 64.13Q253 62.98 251.27 62.34Q249.55 61.7 247.5 61.7Q245.67 61.7 244.27 62.27Q242.86 62.82 241.9 63.75Q241.28 64.35 240.85 65.07Q240.61 65.46 240.43 65.88Q240.11 66.66 239.99 67.47Q239.93 67.9 239.93 68.34Q239.93 69.92 240.38 71.01Q240.85 72.09 241.6 72.81Q241.81 73.01 242.04 73.19Q242.62 73.65 243.31 73.98Q244.27 74.42 245.26 74.74Q246.25 75.06 247.21 75.34Q248.17 75.61 248.92 76Q249.67 76.39 250.13 76.97Q250.15 77 250.17 77.03Q250.59 77.58 250.59 78.45Q250.59 79.72 249.98 80.54Q249.8 80.77 249.58 80.96Q248.57 81.83 246.73 81.83Q245.53 81.83 244.67 81.5Q243.82 81.17 243.18 80.77Q242.54 80.38 242.07 80.05Q241.61 79.72 241.21 79.72Q241.11 79.72 241.01 79.74Q240.83 79.77 240.67 79.88Q240.41 80.02 240.25 80.24L238.99 82.31Q239.66 83 240.52 83.56Q241.38 84.12 242.37 84.52Q243.35 84.91 244.42 85.13Q244.93 85.24 245.43 85.29Q246.02 85.35 246.6 85.35Q248.52 85.35 250.01 84.77Q251.5 84.18 252.53 83.16Q252.97 82.73 253.32 82.24Q253.79 81.57 254.1 80.78Q254.12 80.73 254.14 80.68Q254.63 79.35 254.63 77.84Q254.63 76.41 254.17 75.4Q253.73 74.42 253.01 73.74Q252.99 73.72 252.97 73.7Q252.9 73.63 252.82 73.56Q252.13 72.96 251.26 72.55Q250.72 72.29 250.16 72.07Q249.73 71.89 249.29 71.74Q248.28 71.4 247.32 71.09Q246.36 70.79 245.61 70.41Q244.86 70.02 244.4 69.48Q244.31 69.38 244.24 69.26Q243.95 68.77 243.95 68.12Q243.95 67.48 244.17 66.95Q244.26 66.71 244.41 66.51Q244.59 66.24 244.85 66.02Q245.31 65.64 245.98 65.42Q246.65 65.2 247.55 65.2Q248.54 65.2 249.27 65.45Q249.99 65.7 250.53 66.01Q251.08 66.31 251.47 66.56Q251.87 66.81 252.2 66.81Q252.52 66.81 252.74 66.66ZM60.75 72.23L60.75 65.38L71.02 65.38L71.02 61.96L56.43 61.96L56.43 85.09L60.75 85.09L60.75 75.67L69.42 75.67L69.42 72.23L60.75 72.23ZM95.1 85.09L95.1 81.54L85.85 81.54L85.85 61.96L81.55 61.96L81.55 85.09L95.1 85.09ZM109.07 81.21Q108.09 81.63 106.85 81.63Q105.6 81.63 104.61 81.21Q103.85 80.89 103.28 80.36Q103.1 80.21 102.95 80.03Q102.27 79.27 101.91 78.2Q101.55 77.13 101.55 75.8L101.55 61.96L97.24 61.96L97.24 75.81Q97.24 77.88 97.91 79.63Q98.46 81.08 99.39 82.19Q99.59 82.43 99.81 82.66Q99.88 82.73 99.95 82.8Q101.15 83.96 102.82 84.64Q104.6 85.35 106.85 85.35Q109.06 85.35 110.84 84.64Q112.57 83.94 113.78 82.73Q113.82 82.69 113.85 82.66Q114.1 82.4 114.32 82.13Q115.23 81.04 115.76 79.63Q116.42 77.88 116.42 75.81L116.42 61.96L112.13 61.96L112.13 75.81Q112.13 77.14 111.76 78.22Q111.4 79.29 110.73 80.04Q110.61 80.17 110.48 80.29Q109.88 80.86 109.07 81.21ZM135.8 85.09L140.09 85.09L132.44 73.02L139.89 61.96L135.77 61.96Q135.45 61.96 135.24 62.1Q135.03 62.24 134.86 62.55L130.03 70.15Q129.8 70.55 129.64 70.95L124.38 62.47Q124.2 62.2 124 62.08Q123.8 61.96 123.36 61.96L119.07 61.96L126.44 73.19L118.76 85.09L122.78 85.09Q123.1 85.09 123.32 84.95Q123.38 84.91 123.43 84.87Q123.68 84.63 123.86 84.36L129 76.16Q129.18 75.88 129.31 75.48L134.67 84.36Q134.68 84.38 134.69 84.4Q134.84 84.66 135.09 84.88L135.09 84.88Q135.36 85.09 135.8 85.09ZM147.07 71.8L147.07 65.38L157.34 65.38L157.34 61.96L142.75 61.96L142.75 85.09L157.34 85.09L157.34 81.66L147.07 81.66L147.07 75.11L155.16 75.11L155.16 71.8L147.07 71.8ZM175.32 85.09L179.21 85.09L173.42 76.55Q173.13 76.1 172.78 75.77Q172.68 75.68 172.58 75.6Q172.31 75.38 172.01 75.2Q173.23 74.84 174.18 74.2Q175.13 73.56 175.78 72.71Q175.97 72.46 176.14 72.19Q176.53 71.55 176.77 70.82Q177.12 69.78 177.12 68.62Q177.12 67.14 176.6 65.92Q176.45 65.55 176.25 65.22Q175.77 64.43 175.01 63.82Q173.93 62.94 172.24 62.45Q170.56 61.96 168.2 61.96L161.15 61.96L161.15 85.09L165.45 85.09L165.45 76.06L167.29 76.06Q167.93 76.06 168.26 76.23Q168.59 76.41 168.86 76.82L173.72 84.23Q173.92 84.58 174.22 84.79Q174.67 85.09 175.32 85.09ZM181.73 85.09L186.05 85.09L186.05 61.96L181.73 61.96L181.73 85.09ZM228.61 81.21Q227.62 81.63 226.38 81.63Q225.13 81.63 224.15 81.21Q223.39 80.89 222.81 80.36Q222.64 80.21 222.48 80.03Q221.8 79.27 221.44 78.2Q221.09 77.13 221.09 75.8L221.09 61.96L216.78 61.96L216.78 75.81Q216.78 77.88 217.44 79.63Q217.99 81.08 218.93 82.19Q219.13 82.43 219.34 82.66Q219.41 82.73 219.48 82.8Q220.68 83.96 222.36 84.64Q224.14 85.35 226.38 85.35Q228.6 85.35 230.37 84.64Q232.1 83.94 233.32 82.73Q233.35 82.69 233.39 82.66Q233.64 82.4 233.86 82.13Q234.76 81.04 235.3 79.63Q235.96 77.88 235.96 75.81L235.96 61.96L231.66 61.96L231.66 75.81Q231.66 77.14 231.3 78.22Q230.94 79.29 230.26 80.04Q230.15 80.17 230.02 80.29Q229.42 80.86 228.61 81.21ZM170.26 72.66Q169.35 72.97 168.14 72.97L165.45 72.97L165.45 65.29L168.2 65.29Q170.59 65.29 171.74 66.23Q172.07 66.5 172.31 66.83Q172.91 67.67 172.91 68.94Q172.91 69.81 172.62 70.56Q172.49 70.89 172.29 71.18Q172.06 71.54 171.74 71.83Q171.17 72.36 170.26 72.66ZM47.72 70.12Q48.24 71.63 48.24 73.52Q48.24 75.43 47.72 76.95Q47.21 78.45 46.27 79.5Q45.98 79.82 45.65 80.1Q44.91 80.72 43.97 81.11Q42.62 81.67 40.92 81.67Q39.23 81.67 37.88 81.11Q36.96 80.73 36.23 80.13Q35.88 79.84 35.57 79.5Q34.62 78.45 34.1 76.95Q33.6 75.43 33.6 73.52Q33.6 71.63 34.1 70.12Q34.62 68.6 35.57 67.55Q35.94 67.14 36.36 66.81Q37.04 66.27 37.88 65.93Q39.23 65.37 40.92 65.37Q42.62 65.37 43.97 65.93Q44.83 66.28 45.52 66.83Q45.92 67.16 46.27 67.55Q47.21 68.6 47.72 70.12ZM208.36 70.12Q208.88 71.63 208.88 73.52Q208.88 75.43 208.36 76.95Q207.85 78.45 206.91 79.5Q206.62 79.82 206.29 80.1Q205.55 80.72 204.61 81.11Q203.26 81.67 201.57 81.67Q199.87 81.67 198.52 81.11Q197.6 80.73 196.87 80.13Q196.52 79.84 196.21 79.5Q195.26 78.45 194.74 76.95Q194.24 75.43 194.24 73.52Q194.24 71.63 194.74 70.12Q195.26 68.6 196.21 67.55Q196.58 67.14 197 66.81Q197.69 66.27 198.52 65.93Q199.87 65.37 201.57 65.37Q203.26 65.37 204.61 65.93Q205.47 66.28 206.16 66.83Q206.56 67.16 206.91 67.55Q207.85 68.6 208.36 70.12Z" fill="#222222" fill-opacity="1.000000" fill-rule="evenodd"/>
	<path id="THE BRAND OF LUXERIOUS FASHION" d="M316.5 66.66Q316.71 66.5 316.91 66.16L317.98 64.13Q316.76 62.98 315.03 62.34Q313.31 61.7 311.26 61.7Q309.43 61.7 308.03 62.27Q306.62 62.82 305.66 63.75Q305.04 64.35 304.61 65.07Q304.37 65.46 304.19 65.88Q303.87 66.66 303.75 67.47Q303.69 67.9 303.69 68.34Q303.69 69.92 304.14 71.01Q304.6 72.09 305.35 72.81Q305.57 73.01 305.8 73.19Q306.38 73.65 307.07 73.98Q308.03 74.42 309.02 74.74Q310.01 75.06 310.97 75.34Q311.93 75.61 312.68 76Q313.43 76.39 313.89 76.97Q313.91 77 313.93 77.03Q314.35 77.58 314.35 78.45Q314.35 79.72 313.74 80.54Q313.56 80.77 313.34 80.96Q312.33 81.83 310.49 81.83Q309.29 81.83 308.43 81.5Q307.58 81.17 306.94 80.77Q306.3 80.38 305.83 80.05Q305.37 79.72 304.97 79.72Q304.87 79.72 304.77 79.74Q304.59 79.77 304.43 79.88Q304.17 80.02 304.01 80.24L302.75 82.31Q303.42 83 304.28 83.56Q305.14 84.12 306.13 84.52Q307.11 84.91 308.18 85.13Q308.69 85.24 309.19 85.29Q309.78 85.35 310.36 85.35Q312.28 85.35 313.77 84.77Q315.26 84.18 316.29 83.16Q316.73 82.73 317.08 82.24Q317.55 81.57 317.85 80.78Q317.88 80.73 317.9 80.68Q318.39 79.35 318.39 77.84Q318.39 76.41 317.93 75.4Q317.49 74.42 316.77 73.74Q316.75 73.72 316.73 73.7Q316.66 73.63 316.58 73.56Q315.89 72.96 315.02 72.55Q314.48 72.29 313.92 72.07Q313.49 71.89 313.05 71.74Q312.04 71.4 311.08 71.09Q310.12 70.79 309.37 70.41Q308.62 70.02 308.16 69.48Q308.07 69.38 308 69.26Q307.71 68.77 307.71 68.12Q307.71 67.48 307.93 66.95Q308.02 66.71 308.17 66.51Q308.35 66.24 308.6 66.02Q309.07 65.64 309.74 65.42Q310.41 65.2 311.31 65.2Q312.3 65.2 313.03 65.45Q313.75 65.7 314.29 66.01Q314.84 66.31 315.23 66.56Q315.63 66.81 315.96 66.81Q316.28 66.81 316.5 66.66ZM377.5 78.24Q378.35 76.07 378.35 73.52Q378.35 71.83 377.97 70.3Q377.6 68.76 376.87 67.45Q376.41 66.6 375.81 65.85Q375.49 65.45 375.12 65.07Q374.73 64.66 374.29 64.3Q373.59 63.72 372.79 63.27Q371.5 62.52 369.94 62.11Q368.4 61.7 366.64 61.7Q364.01 61.7 361.85 62.59Q360.12 63.3 358.79 64.46Q358.45 64.75 358.15 65.06Q357.9 65.31 357.68 65.58Q356.47 66.99 355.75 68.82Q354.91 70.98 354.91 73.52Q354.91 76.07 355.75 78.24Q356.46 80.03 357.63 81.42Q357.88 81.72 358.15 81.99Q358.41 82.26 358.68 82.51Q360.06 83.72 361.85 84.46Q364.01 85.35 366.64 85.35Q369.28 85.35 371.43 84.46Q373.31 83.69 374.71 82.4Q374.93 82.2 375.13 81.99Q375.44 81.68 375.72 81.34Q376.84 79.98 377.5 78.24ZM270.48 72.23L270.48 65.38L280.75 65.38L280.75 61.96L266.16 61.96L266.16 85.09L270.48 85.09L270.48 75.67L279.15 75.67L279.15 72.23L270.48 72.23ZM298.86 85.09L302.19 85.09L293.1 61.96L288.72 61.96L279.61 85.09L282.98 85.09Q283.38 85.09 283.69 84.92Q283.79 84.86 283.88 84.79Q284.25 84.48 284.38 84.12L286.11 79.4L295.69 79.4L297.42 84.12Q297.5 84.32 297.63 84.49Q297.76 84.67 297.94 84.81Q297.97 84.83 298 84.85Q298.35 85.09 298.86 85.09ZM341.64 85.09L341.64 61.96L337.32 61.96L337.32 71.91L326.46 71.91L326.46 61.96L322.14 61.96L322.14 85.09L326.46 85.09L326.46 74.98L337.32 74.98L337.32 85.09L341.64 85.09ZM346.8 85.09L351.12 85.09L351.12 61.96L346.8 61.96L346.8 85.09ZM401.64 85.09L401.64 61.96L397.85 61.96L397.85 76.02Q397.85 76.48 397.88 77.03Q397.92 77.57 397.96 78.13L385.84 62.65Q385.66 62.42 385.51 62.29Q385.37 62.15 385.22 62.08Q385.07 62.01 384.87 61.98Q384.67 61.96 384.39 61.96L382.14 61.96L382.14 85.09L385.93 85.09L385.93 70.88Q385.93 69.99 385.84 68.94L397.92 84.36Q398.24 84.76 398.58 84.93Q398.92 85.09 399.44 85.09L401.64 85.09ZM373.43 70.12Q373.95 71.63 373.95 73.52Q373.95 75.43 373.43 76.95Q372.93 78.45 371.98 79.5Q371.69 79.82 371.36 80.1Q370.62 80.72 369.68 81.11Q368.33 81.67 366.64 81.67Q364.94 81.67 363.59 81.11Q362.68 80.73 361.94 80.13Q361.59 79.84 361.29 79.5Q360.33 78.45 359.82 76.95Q359.31 75.43 359.31 73.52Q359.31 71.63 359.82 70.12Q360.33 68.6 361.29 67.55Q361.65 67.14 362.08 66.81Q362.76 66.27 363.59 65.93Q364.94 65.37 366.64 65.37Q368.33 65.37 369.68 65.93Q370.54 66.28 371.23 66.83Q371.63 67.16 371.98 67.55Q372.93 68.6 373.43 70.12ZM291.77 68.66L294.58 76.36L287.23 76.36L290.03 68.7Q290.23 68.16 290.46 67.45Q290.69 66.74 290.89 65.92Q291.12 66.74 291.33 67.45Q291.56 68.15 291.77 68.66Z" fill="#F16D7F" fill-opacity="1.000000" fill-rule="evenodd"/>
</svg>
